<svg width="90" height="90" viewBox="0 0 90 90" fill="none" xmlns="http://www.w3.org/2000/svg">
<path d="M70.7143 10.1786H19.8214V39.6429C23.0357 39.2857 30.6429 38.7857 35.3571 39.6429C40.0714 40.5 41.6071 44.6429 41.7857 46.6072C42.1429 48.75 42.6429 54.9643 41.7857 62.6786C40.9286 70.3929 35.3571 71.6072 32.6786 71.25H18.75V76.0714H70.7143V47.6786C67.5 47.3214 60.2143 46.8214 56.7857 47.6786C53.3571 48.5357 50 44.4643 48.75 42.3214C48.5714 36.9643 48.3214 25.2857 48.75 21.4286C49.1786 17.5714 53.5714 15.5357 55.7143 15H70.7143V10.1786Z" fill="#D2F3E4"/>
<path d="M79.8387 14.5161H72.5807V7.25806C72.5807 3.25597 69.3247 0 65.3226 0H24.6774C20.6753 0 17.4194 3.25597 17.4194 7.25806V37.7419H10.1613C4.55952 37.7419 0 42.3 0 47.9032V62.4194C0 68.0226 4.55952 72.5807 10.1613 72.5807H17.4194V82.7419C17.4194 86.744 20.6753 90 24.6774 90H65.3226C69.3247 90 72.5807 86.744 72.5807 82.7419V49.3548H79.8387C85.4405 49.3548 90 44.7968 90 39.1936V24.6774C90 19.0742 85.4405 14.5161 79.8387 14.5161ZM24.6774 2.90323H65.3226C67.7235 2.90323 69.6774 4.8571 69.6774 7.25806V8.70968H20.3226V7.25806C20.3226 4.8571 22.2765 2.90323 24.6774 2.90323ZM2.90323 62.4194V47.9032C2.90323 43.9011 6.15919 40.6452 10.1613 40.6452H33.3871C37.3892 40.6452 40.6452 43.9011 40.6452 47.9032V62.4194C40.6452 66.4215 37.3892 69.6774 33.3871 69.6774H10.1613C6.15919 69.6774 2.90323 66.4215 2.90323 62.4194ZM65.3226 87.0968H24.6774C22.2765 87.0968 20.3226 85.1429 20.3226 82.7419V78.3871H69.6774V82.7419C69.6774 85.1429 67.7235 87.0968 65.3226 87.0968ZM69.6774 75.4839H20.3226V72.5807H33.3871C38.9889 72.5807 43.5484 68.0226 43.5484 62.4194V47.9032C43.5484 42.3 38.9889 37.7419 33.3871 37.7419H20.3226V11.6129H69.6774V14.5161H56.6129C51.0111 14.5161 46.4516 19.0742 46.4516 24.6774V39.1936C46.4516 44.7968 51.0111 49.3548 56.6129 49.3548H69.6774V75.4839ZM62.4194 29.0323C62.4194 25.83 65.0236 23.2258 68.2258 23.2258C71.4281 23.2258 74.0323 25.83 74.0323 29.0323C74.0323 32.2345 71.4281 34.8387 68.2258 34.8387C65.0236 34.8387 62.4194 32.2345 62.4194 29.0323ZM59.5161 46.4516C59.5161 41.6482 63.4224 37.7419 68.2258 37.7419C73.0292 37.7419 76.9355 41.6482 76.9355 46.4516H59.5161ZM87.0968 39.1936C87.0968 43.1956 83.8408 46.4516 79.8387 46.4516C79.8387 41.8936 77.1924 37.951 73.3602 36.0508C75.5231 34.4656 76.9355 31.9137 76.9355 29.0323C76.9355 24.2289 73.0292 20.3226 68.2258 20.3226C63.4224 20.3226 59.5161 24.2289 59.5161 29.0323C59.5161 31.9137 60.9286 34.4656 63.0915 36.0508C59.2592 37.951 56.6129 41.8936 56.6129 46.4516C52.6108 46.4516 49.3548 43.1956 49.3548 39.1936V24.6774C49.3548 20.6753 52.6108 17.4194 56.6129 17.4194H79.8387C83.8408 17.4194 87.0968 20.6753 87.0968 24.6774V39.1936Z" fill="#0F5EBE"/>
<path d="M36.4285 81.4286H53.5713V84.6429H36.4285V81.4286Z" fill="#0F5EBE"/>
<path d="M37.5 53.6989H26.4458L23.084 59.1746L17.1229 46.0714L13.2205 53.6989H5.35718V56.5545H15.0263L16.9681 52.7594L22.6953 65.3571L28.0997 56.5545H37.5V53.6989Z" fill="#0F5EBE"/>
<path d="M40.7144 28.9286H43.9286V32.1429H40.7144V28.9286Z" fill="#0F5EBE"/>
<path d="M35.3572 28.9286H37.5V32.1429H35.3572V28.9286Z" fill="#0F5EBE"/>
<path d="M28.9285 28.9286H32.1428V32.1429H28.9285V28.9286Z" fill="#0F5EBE"/>
<path d="M57.8572 56.7857H61.0715V60H57.8572V56.7857Z" fill="#0F5EBE"/>
<path d="M52.5 56.7857H54.6429V60H52.5V56.7857Z" fill="#0F5EBE"/>
<path d="M46.0715 56.7857H49.2858V60H46.0715V56.7857Z" fill="#0F5EBE"/>
</svg>
