<svg width="85" height="82" viewBox="0 0 85 82" fill="none" xmlns="http://www.w3.org/2000/svg">
<rect x="2.16333" y="3.08472" width="80.3226" height="48.3871" fill="#D2F3E4"/>
<ellipse cx="42.8086" cy="27.2782" rx="14.5161" ry="14.5161" fill="white"/>
<path d="M77.481 0H7.16846C5.30434 0.00223292 3.51721 0.74374 2.19908 2.06187C0.880947 3.38 0.13944 5.16713 0.137207 7.03125V57.6562C0.13944 59.5204 0.880947 61.3075 2.19908 62.6256C3.51721 63.9438 5.30434 64.6853 7.16846 64.6875H30.8877L29.833 73.125H28.2622C27.5163 73.125 26.8009 73.4213 26.2735 73.9488C25.746 74.4762 25.4497 75.1916 25.4497 75.9375V78.75H22.6372V81.5625H62.0122V78.75H59.1997V75.9375C59.1997 75.1916 58.9034 74.4762 58.3759 73.9488C57.8485 73.4213 57.1331 73.125 56.3872 73.125H54.8164L53.7617 64.6875H77.481C79.3451 64.6853 81.1322 63.9438 82.4503 62.6256C83.7685 61.3075 84.51 59.5204 84.5122 57.6562V7.03125C84.51 5.16713 83.7685 3.38 82.4503 2.06187C81.1322 0.74374 79.3451 0.00223292 77.481 0ZM7.16846 2.8125H77.481C78.5998 2.8125 79.6729 3.25697 80.4641 4.04814C81.2552 4.83931 81.6997 5.91237 81.6997 7.03125V50.625H2.94971V7.03125C2.94971 5.91237 3.39418 4.83931 4.18535 4.04814C4.97652 3.25697 6.04957 2.8125 7.16846 2.8125ZM56.3872 78.75H28.2622V75.9375H56.3872V78.75ZM51.9814 73.125H32.668L33.7227 64.6875H50.9267L51.9814 73.125ZM77.481 61.875H7.16846C6.04957 61.875 4.97652 61.4305 4.18535 60.6394C3.39418 59.8482 2.94971 58.7751 2.94971 57.6562V53.4375H81.6997V57.6562C81.6997 58.7751 81.2552 59.8482 80.4641 60.6394C79.6729 61.4305 78.5998 61.875 77.481 61.875Z" fill="#0F5EBE"/>
<path d="M77.481 56.25H74.6685V59.0625H77.481V56.25Z" fill="#0F5EBE"/>
<path d="M28.5702 19.6706C28.1896 20.4116 27.8702 21.1824 27.6153 21.9755L23.8438 22.5141C23.5088 22.5621 23.2024 22.7293 22.9808 22.9851C22.7591 23.2408 22.6372 23.5679 22.6372 23.9062V29.5312C22.6372 29.8696 22.7591 30.1967 22.9808 30.4524C23.2024 30.7082 23.5088 30.8754 23.8438 30.9234L27.6153 31.462C27.8702 32.2551 28.1896 33.0259 28.5702 33.7669L26.285 36.8128C26.082 37.0836 25.9834 37.4186 26.0074 37.7562C26.0315 38.0938 26.1765 38.4114 26.4158 38.6508L30.3927 42.6277C30.6319 42.8666 30.9493 43.0114 31.2866 43.0354C31.6239 43.0594 31.9585 42.9611 32.2292 42.7584L35.2766 40.4747C36.0176 40.8548 36.7884 41.1737 37.5814 41.4281L38.12 45.1997C38.1681 45.5347 38.3353 45.8411 38.591 46.0627C38.8467 46.2843 39.1738 46.4063 39.5122 46.4062H45.1372C45.4756 46.4063 45.8027 46.2843 46.0584 46.0627C46.3141 45.8411 46.4813 45.5347 46.5294 45.1997L47.068 41.4281C47.8609 41.1735 48.6317 40.8546 49.3728 40.4747L52.4202 42.7584C52.6909 42.9611 53.0255 43.0594 53.3628 43.0354C53.7001 43.0114 54.0175 42.8666 54.2567 42.6277L58.2336 38.6508C58.473 38.4114 58.6179 38.0938 58.642 37.7562C58.666 37.4186 58.5674 37.0836 58.3644 36.8128L56.0792 33.7669C56.4598 33.0259 56.7792 32.2551 57.0341 31.462L60.8056 30.9234C61.1406 30.8754 61.447 30.7082 61.6686 30.4524C61.8903 30.1967 62.0123 29.8696 62.0122 29.5312V23.9062C62.0123 23.5679 61.8903 23.2408 61.6686 22.9851C61.447 22.7293 61.1406 22.5621 60.8056 22.5141L57.0341 21.9755C56.7792 21.1824 56.4598 20.4116 56.0792 19.6706L58.3644 16.6247C58.5674 16.3539 58.666 16.0189 58.642 15.6813C58.6179 15.3437 58.473 15.0261 58.2336 14.7867L54.2567 10.8098C54.0175 10.5709 53.7001 10.4261 53.3628 10.4021C53.0255 10.3781 52.6909 10.4764 52.4202 10.6791L49.3728 12.9628C48.6317 12.5829 47.8609 12.264 47.068 12.0094L46.5294 8.23781C46.4813 7.90284 46.3141 7.59644 46.0584 7.37481C45.8027 7.15319 45.4756 7.0312 45.1372 7.03125H39.5122C39.1738 7.0312 38.8467 7.15319 38.591 7.37481C38.3353 7.59644 38.1681 7.90284 38.12 8.23781L37.5814 12.0094C36.7884 12.2638 36.0176 12.5827 35.2766 12.9628L32.2292 10.6791C31.9592 10.4747 31.6242 10.3753 31.2864 10.3994C30.9486 10.4234 30.631 10.5693 30.3927 10.8098L26.4158 14.7867C26.1765 15.0261 26.0315 15.3437 26.0074 15.6813C25.9834 16.0189 26.082 16.3539 26.285 16.6247L28.5702 19.6706ZM31.3644 18.7102L29.2663 15.9117L31.5163 13.6617L34.3161 15.7598C34.5388 15.9268 34.8059 16.0239 35.0838 16.0389C35.3616 16.0539 35.6377 15.9862 35.8771 15.8442C36.9095 15.2298 38.0255 14.768 39.1902 14.4731C39.4603 14.4046 39.704 14.2573 39.8903 14.05C40.0766 13.8427 40.1971 13.5847 40.2364 13.3087L40.7314 9.84375H43.918L44.4116 13.3073C44.451 13.5833 44.5714 13.8413 44.7577 14.0486C44.944 14.2559 45.1877 14.4032 45.4578 14.4717C46.6225 14.7666 47.7385 15.2284 48.771 15.8428C49.0103 15.9848 49.2864 16.0525 49.5642 16.0375C49.8421 16.0225 50.1093 15.9254 50.3319 15.7584L53.1317 13.6603L55.3817 15.9103L53.2836 18.7088C53.1162 18.9314 53.0186 19.1987 53.0034 19.4769C52.9881 19.755 53.0558 20.0315 53.1978 20.2711C53.8122 21.3044 54.2749 22.4207 54.5717 23.5856C54.6407 23.8551 54.788 24.098 54.995 24.2837C55.202 24.4695 55.4594 24.5896 55.7347 24.6291L59.1997 25.1255V28.312L55.7361 28.807C55.4608 28.8465 55.2034 28.9666 54.9964 29.1524C54.7894 29.3381 54.6421 29.581 54.5731 29.8505C54.2763 31.0154 53.8136 32.1317 53.1992 33.165C53.0572 33.4046 52.9895 33.6811 53.0048 33.9592C53.02 34.2374 53.1176 34.5047 53.285 34.7273L55.3831 37.5258L53.1331 39.7758L50.3333 37.6777C50.1107 37.5107 49.8435 37.4136 49.5656 37.3986C49.2878 37.3836 49.0117 37.4513 48.7724 37.5933C47.7399 38.2077 46.624 38.6695 45.4592 38.9644C45.1891 39.0329 44.9454 39.1802 44.7591 39.3875C44.5728 39.5948 44.4524 39.8528 44.413 40.1287L43.918 43.5938H40.7314L40.2378 40.1302C40.1985 39.8542 40.078 39.5962 39.8917 39.3889C39.7054 39.1816 39.4617 39.0343 39.1916 38.9658C38.0269 38.6709 36.9109 38.2091 35.8785 37.5947C35.6391 37.4527 35.363 37.385 35.0852 37.4C34.8073 37.415 34.5402 37.5121 34.3175 37.6791L31.5177 39.7772L29.2677 37.5272L31.3658 34.7287C31.5332 34.5061 31.6308 34.2388 31.646 33.9606C31.6613 33.6825 31.5936 33.406 31.4516 33.1664C30.8372 32.1331 30.3745 31.0168 30.0777 29.8519C30.0087 29.5824 29.8614 29.3395 29.6544 29.1538C29.4474 28.968 29.19 28.8479 28.9147 28.8084L25.4497 28.312V25.1255L28.9133 24.6305C29.1886 24.591 29.446 24.4709 29.653 24.2851C29.86 24.0994 30.0073 23.8565 30.0763 23.587C30.3731 22.4221 30.8358 21.3058 31.4502 20.2725C31.5922 20.0329 31.6599 19.7564 31.6446 19.4783C31.6294 19.2001 31.5318 18.9328 31.3644 18.7102Z" fill="#0F5EBE"/>
<path d="M42.3247 35.1562C43.9935 35.1562 45.6248 34.6614 47.0123 33.7343C48.3999 32.8071 49.4813 31.4894 50.1199 29.9476C50.7585 28.4059 50.9256 26.7094 50.6001 25.0727C50.2745 23.436 49.4709 21.9325 48.2909 20.7525C47.1109 19.5725 45.6075 18.7689 43.9708 18.4434C42.3341 18.1178 40.6376 18.2849 39.0958 18.9235C37.5541 19.5621 36.2363 20.6436 35.3092 22.0311C34.3821 23.4187 33.8872 25.05 33.8872 26.7187C33.8894 28.9558 34.7791 31.1006 36.361 32.6825C37.9428 34.2643 40.0876 35.154 42.3247 35.1562ZM42.3247 21.0938C43.4372 21.0938 44.5248 21.4237 45.4498 22.0417C46.3748 22.6598 47.0958 23.5383 47.5215 24.5662C47.9473 25.594 48.0587 26.725 47.8416 27.8161C47.6246 28.9073 47.0888 29.9095 46.3022 30.6962C45.5155 31.4829 44.5132 32.0186 43.4221 32.2357C42.3309 32.4527 41.1999 32.3413 40.1721 31.9156C39.1443 31.4898 38.2658 30.7688 37.6477 29.8438C37.0296 28.9188 36.6997 27.8313 36.6997 26.7187C36.6997 25.2269 37.2923 23.7962 38.3472 22.7413C39.4021 21.6864 40.8329 21.0938 42.3247 21.0938Z" fill="#0F5EBE"/>
<path d="M65.407 11.25H67.6373V8.4375H64.8248C64.4519 8.43758 64.0942 8.58579 63.8306 8.84953L59.6118 13.0683L61.6003 15.0567L65.407 11.25Z" fill="#0F5EBE"/>
<path d="M76.0747 7.03125H70.4497V9.84375H76.0747V7.03125Z" fill="#0F5EBE"/>
<path d="M76.0747 12.6562H70.4497V15.4688H76.0747V12.6562Z" fill="#0F5EBE"/>
<path d="M61.6003 36.9745L59.6118 38.963L63.8306 43.1817C64.0942 43.4455 64.4519 43.5937 64.8248 43.5938H67.6373V40.7813H65.407L61.6003 36.9745Z" fill="#0F5EBE"/>
<path d="M76.0747 37.9688H70.4497V40.7812H76.0747V37.9688Z" fill="#0F5EBE"/>
<path d="M76.0747 43.5938H70.4497V46.4062H76.0747V43.5938Z" fill="#0F5EBE"/>
<path d="M23.0492 15.0567L25.0377 13.0683L20.8189 8.84953C20.5553 8.58579 20.1976 8.43758 19.8247 8.4375H17.0122V11.25H19.2425L23.0492 15.0567Z" fill="#0F5EBE"/>
<path d="M14.1997 7.03125H8.57471V9.84375H14.1997V7.03125Z" fill="#0F5EBE"/>
<path d="M14.1997 12.6562H8.57471V15.4688H14.1997V12.6562Z" fill="#0F5EBE"/>
<path d="M20.8189 43.1817L25.0377 38.963L23.0492 36.9745L19.2425 40.7813H17.0122V43.5938H19.8247C20.1976 43.5937 20.5553 43.4455 20.8189 43.1817Z" fill="#0F5EBE"/>
<path d="M14.1997 37.9688H8.57471V40.7812H14.1997V37.9688Z" fill="#0F5EBE"/>
<path d="M14.1997 43.5938H8.57471V46.4062H14.1997V43.5938Z" fill="#0F5EBE"/>
<path d="M43.731 12.6562H40.9185V15.4688H43.731V12.6562Z" fill="#0F5EBE"/>
<path d="M33.3758 15.781L31.3867 17.7694L33.3751 19.7585L35.3642 17.7701L33.3758 15.781Z" fill="#0F5EBE"/>
<path d="M31.0747 25.3125H28.2622V28.125H31.0747V25.3125Z" fill="#0F5EBE"/>
<path d="M33.3756 33.6784L31.3872 35.6675L33.3763 37.6559L35.3647 35.6668L33.3756 33.6784Z" fill="#0F5EBE"/>
<path d="M43.731 37.9688H40.9185V40.7812H43.731V37.9688Z" fill="#0F5EBE"/>
<path d="M51.2742 33.68L49.2852 35.6683L51.2736 37.6574L53.2626 35.669L51.2742 33.68Z" fill="#0F5EBE"/>
<path d="M56.3872 25.3125H53.5747V28.125H56.3872V25.3125Z" fill="#0F5EBE"/>
<path d="M51.2739 15.7806L49.2852 17.7693L51.2739 19.7581L53.2626 17.7693L51.2739 15.7806Z" fill="#0F5EBE"/>
</svg>
