<svg width="85" height="90" viewBox="0 0 85 90" fill="none" xmlns="http://www.w3.org/2000/svg">
<circle cx="42.2308" cy="45.0001" r="24.2308" fill="#D2F3E4"/>
<path d="M84.4477 62.0409L78.1441 72.9592C77.769 73.6085 76.9728 73.8828 76.2775 73.6021L66.9985 69.8563C66.2278 69.5454 65.8551 68.6684 66.1663 67.8977C66.4774 67.1266 67.3542 66.754 68.125 67.0655L76.1914 70.3217L81.1872 61.6685L74.3426 56.3179C73.8513 55.9338 73.6479 55.2867 73.831 54.6906C75.7267 48.5191 75.7992 41.717 73.831 35.3098C73.6479 34.7137 73.8513 34.0666 74.3426 33.6825L81.1872 28.3319L76.1914 19.6787L68.125 22.9349C67.5466 23.1687 66.8845 23.021 66.4597 22.5643C61.9295 17.6932 56.1297 14.3416 49.6877 12.8718C49.0792 12.7329 48.6194 12.2328 48.5323 11.6144L47.3205 3.00975H37.3287L36.1169 11.6141C36.0298 12.2322 35.5701 12.7324 34.9615 12.8714C28.5194 14.3413 22.7198 17.693 18.1895 22.5639C17.7648 23.0206 17.1026 23.1683 16.5242 22.9345L8.45786 19.6783L3.46187 28.3315L10.3064 33.6821C10.7978 34.0662 11.0011 34.7133 10.8181 35.3095C8.92231 41.4809 8.84988 48.283 10.8181 54.6902C11.0011 55.2863 10.7978 55.9334 10.3064 56.3175L3.46187 61.6681L8.45786 70.3213L16.5242 67.0651C17.1026 66.8313 17.765 66.979 18.1895 67.4357C22.7198 72.3068 28.5195 75.6584 34.9615 77.1282C35.5701 77.2671 36.0298 77.7672 36.1169 78.3856L37.3287 86.9899H47.3205L48.5323 78.3856C48.6194 77.7674 49.0792 77.2673 49.6877 77.1282C53.2151 76.3235 56.5682 74.9458 59.6532 73.0342C60.3603 72.5969 61.2875 72.8147 61.725 73.5209C62.1627 74.2274 61.9449 75.1552 61.2385 75.5929C58.1671 77.496 54.8519 78.9141 51.3705 79.8159L50.1186 88.7047C50.0141 89.4471 49.3784 89.9996 48.6284 89.9996H36.0212C35.2712 89.9996 34.6355 89.4471 34.531 88.7047L33.2791 79.8159C26.9853 78.1873 21.2918 74.8971 16.7055 70.2376L8.37209 73.6016C7.67665 73.8826 6.88057 73.6081 6.50548 72.9586L0.201741 62.0404C-0.173349 61.3908 -0.012704 60.5643 0.578148 60.1023L7.65012 54.5737C5.92967 48.3308 5.9293 41.6696 7.65012 35.4251L0.578148 29.8966C-0.012704 29.4346 -0.173349 28.6081 0.201741 27.9585L6.50548 17.0403C6.88057 16.3907 7.67646 16.1165 8.37209 16.3973L16.7055 19.7613C21.2918 15.1018 26.9853 11.8116 33.2791 10.1829L34.531 1.29419C34.6354 0.552477 35.271 0 36.021 0H48.6283C49.3783 0 50.0139 0.552477 50.1185 1.29495L51.3703 10.1837C57.6641 11.8123 63.3576 15.1026 67.9439 19.762L76.2775 16.3981C76.973 16.1176 77.7692 16.3913 78.1441 17.041L84.4477 27.9593C84.8228 28.6088 84.6621 29.4354 84.0713 29.8974L76.9993 35.4259C78.7197 41.6689 78.7201 48.33 76.9993 54.5745L84.0713 60.103C84.6621 60.5648 84.8228 61.3912 84.4477 62.0409ZM39.8595 52.1588L47.3839 39.3673C47.8053 38.6508 47.5662 37.7285 46.8499 37.3072C46.1337 36.886 45.2112 37.1249 44.7897 37.8412L37.2653 50.6327C36.844 51.3492 37.083 52.2715 37.7994 52.6928C38.5161 53.1142 39.4384 52.8749 39.8595 52.1588ZM33.9832 39.231C33.3957 38.6437 32.4429 38.6435 31.8551 39.231L27.1501 43.936C26.5628 44.5234 26.5625 45.4764 27.1501 46.0642L31.8551 50.7692C32.4429 51.3569 33.3955 51.3567 33.9832 50.7692C34.571 50.1814 34.571 49.2286 33.9832 48.641L30.3423 45.0003L33.9832 41.3596C34.571 40.7716 34.571 39.8188 33.9832 39.231ZM51.5421 51.21C51.9271 51.21 52.3124 51.063 52.6062 50.7692L57.3112 46.064C57.8985 45.4766 57.8989 44.5236 57.3112 43.9358L52.6062 39.2308C52.0186 38.6433 51.0658 38.6433 50.4781 39.2308C49.8903 39.8186 49.8903 40.7714 50.4781 41.3591L54.119 44.9997L50.4781 48.6406C49.5269 49.5922 50.2135 51.21 51.5421 51.21ZM33.5178 69.0192C36.3902 70.0724 39.3684 70.5967 42.3392 70.5965C60.9291 70.5956 73.3882 51.1848 65.5357 34.2423C59.6041 21.4441 44.3659 15.8572 31.5669 21.7887C15.2956 29.33 11.6064 51.0123 24.62 63.476C25.2203 64.0511 26.1731 64.0304 26.7477 63.4301C27.3226 62.83 27.3021 61.8773 26.7018 61.3024C15.227 50.3119 18.4679 31.1769 32.8323 24.5195C44.1259 19.2857 57.571 24.2149 62.8047 35.5079C68.0387 46.8007 63.1093 60.2464 51.8163 65.4803C46.3455 68.0158 40.2149 68.269 34.5533 66.1934C33.7733 65.9077 32.9085 66.3082 32.6224 67.0883C32.3367 67.8687 32.7373 68.7333 33.5178 69.0192Z" fill="#0049B8"/>
</svg>
