<svg width="102" height="51" viewBox="0 0 102 51" fill="none" xmlns="http://www.w3.org/2000/svg">
<path d="M26.393 50.4941C25.8261 50.3361 25.2959 50.0676 24.833 49.7041L25.373 48.7041C25.7975 49.0243 26.2747 49.268 26.783 49.4241C27.3541 49.612 27.9518 49.7066 28.553 49.7041C29.1799 49.7482 29.8067 49.6166 30.363 49.3241C30.5502 49.2231 30.7078 49.0749 30.82 48.8943C30.9323 48.7136 30.9954 48.5067 31.003 48.2941C31.0082 48.1503 30.9823 48.0071 30.9271 47.8742C30.8719 47.7413 30.7886 47.6219 30.683 47.5241C30.444 47.3232 30.1642 47.1765 29.863 47.0941C29.4321 46.9758 28.9947 46.8823 28.553 46.8141C27.9618 46.7093 27.3774 46.569 26.803 46.3941C26.3693 46.2583 25.9794 46.0098 25.673 45.6741C25.341 45.2819 25.1727 44.777 25.203 44.2641C25.1979 43.904 25.2809 43.5482 25.4447 43.2275C25.6086 42.9068 25.8483 42.631 26.143 42.4241C26.9081 41.9082 27.8219 41.6587 28.743 41.7141C29.3272 41.7155 29.9087 41.7928 30.473 41.9441C30.9792 42.0648 31.4623 42.2675 31.903 42.5441L31.373 43.5441C30.5943 43.0195 29.6716 42.7504 28.733 42.7741C28.1251 42.7345 27.5193 42.8773 26.993 43.1841C26.8113 43.2971 26.6617 43.4548 26.5584 43.6421C26.4551 43.8295 26.4016 44.0402 26.403 44.2541C26.3951 44.4066 26.4205 44.5589 26.4775 44.7005C26.5345 44.8422 26.6217 44.9696 26.733 45.0741C26.9669 45.2868 27.2479 45.441 27.553 45.5241C28.0008 45.6477 28.4548 45.7478 28.913 45.8241C29.4937 45.928 30.0679 46.0649 30.633 46.2341C31.0583 46.3653 31.4413 46.6069 31.743 46.9341C32.0664 47.3109 32.2313 47.7984 32.203 48.2941C32.2095 48.6638 32.1209 49.029 31.9458 49.3547C31.7707 49.6803 31.515 49.9556 31.203 50.1541C30.3919 50.6567 29.4457 50.8976 28.493 50.8441C27.7791 50.8374 27.0705 50.7194 26.393 50.4941Z" fill="white"/>
<path d="M35.7225 50.2239C35.0413 49.843 34.4775 49.2827 34.0924 48.6038C33.703 47.8836 33.499 47.0777 33.499 46.2589C33.499 45.44 33.703 44.6341 34.0924 43.9138C34.475 43.2331 35.0394 42.6722 35.7225 42.2938C36.4408 41.9155 37.2405 41.7178 38.0524 41.7178C38.8644 41.7178 39.6641 41.9155 40.3825 42.2938C41.0621 42.6689 41.6232 43.2266 42.0024 43.9039C42.3859 44.626 42.5865 45.4312 42.5865 46.2488C42.5865 47.0665 42.3859 47.8717 42.0024 48.5938C41.6222 49.2729 41.0615 49.8336 40.3825 50.2138C39.6662 50.599 38.8657 50.8005 38.0524 50.8005C37.2392 50.8005 36.4387 50.599 35.7225 50.2138V50.2239ZM39.7225 49.3038C40.2264 49.0166 40.6363 48.5893 40.9025 48.0738C41.1827 47.5081 41.3285 46.8852 41.3285 46.2538C41.3285 45.6225 41.1827 44.9996 40.9025 44.4338C40.6363 43.9184 40.2264 43.4911 39.7225 43.2038C39.1977 42.9185 38.6098 42.7691 38.0124 42.7691C37.4151 42.7691 36.8272 42.9185 36.3024 43.2038C35.7975 43.4932 35.385 43.9197 35.1124 44.4338C34.8245 44.9973 34.6744 45.6211 34.6744 46.2538C34.6744 46.8866 34.8245 47.5104 35.1124 48.0738C35.385 48.588 35.7975 49.0145 36.3024 49.3038C36.8272 49.5892 37.4151 49.7386 38.0124 49.7386C38.6098 49.7386 39.1977 49.5892 39.7225 49.3038Z" fill="white"/>
<path d="M45.7126 50.124C45.4854 49.8671 45.311 49.568 45.1995 49.2437C45.088 48.9194 45.0414 48.5763 45.0626 48.234V38.104H46.2726V48.104C46.2401 48.5425 46.372 48.9774 46.6426 49.324C46.7879 49.4707 46.9632 49.5842 47.1566 49.6567C47.3499 49.7292 47.5566 49.759 47.7626 49.744C48.0434 49.7522 48.3228 49.701 48.5826 49.594L48.6626 50.594C48.3128 50.7194 47.9441 50.7836 47.5726 50.784C47.2338 50.8084 46.8936 50.7623 46.5735 50.6487C46.2534 50.5351 45.9602 50.3565 45.7126 50.124Z" fill="white"/>
<path d="M58.3726 41.7739V50.7139H57.2126V49.0939C56.9035 49.6316 56.4496 50.0717 55.9026 50.3639C55.3162 50.6686 54.6634 50.8232 54.0026 50.8139C53.4911 50.8644 52.9748 50.8002 52.4912 50.6261C52.0076 50.452 51.5689 50.1724 51.2069 49.8075C50.8449 49.4427 50.5687 49.0017 50.3985 48.5168C50.2282 48.0318 50.1681 47.515 50.2226 47.0039V41.7739H51.4326V46.8439C51.3793 47.6211 51.6303 48.3885 52.1326 48.9839C52.3963 49.2388 52.7106 49.4355 53.0551 49.5612C53.3996 49.687 53.7667 49.739 54.1326 49.7139C54.5439 49.736 54.9553 49.6708 55.3396 49.5225C55.724 49.3743 56.0726 49.1465 56.3626 48.8539C56.9403 48.1965 57.235 47.3375 57.1826 46.4639V41.7739H58.3726Z" fill="white"/>
<path d="M66.1526 50.1742C65.9118 50.3872 65.6291 50.5473 65.3226 50.6442C64.9994 50.7484 64.6622 50.8023 64.3226 50.8042C63.9707 50.8435 63.6145 50.8034 63.2802 50.6869C62.9458 50.5704 62.6418 50.3805 62.3905 50.1311C62.1392 49.8817 61.947 49.5791 61.8279 49.2457C61.7089 48.9123 61.6661 48.5564 61.7026 48.2042V39.8242H62.9126V41.8242H65.6126V42.8242H62.9126V48.1642C62.8796 48.6061 63.0195 49.0434 63.3026 49.3842C63.4521 49.5309 63.631 49.6442 63.8275 49.7166C64.024 49.789 64.2337 49.8189 64.4426 49.8042C64.9285 49.8268 65.4045 49.6621 65.7726 49.3442L66.1526 50.1742Z" fill="white"/>
<path d="M68.3328 39.5641C68.2503 39.4854 68.1847 39.3907 68.14 39.2858C68.0953 39.181 68.0724 39.0681 68.0728 38.9541C68.0726 38.8416 68.0956 38.7303 68.1404 38.627C68.1851 38.5238 68.2506 38.4309 68.3328 38.3541C68.4196 38.2662 68.5245 38.1984 68.6402 38.1552C68.7559 38.112 68.8796 38.0946 69.0028 38.1041C69.1192 38.1015 69.2349 38.1223 69.3431 38.1652C69.4513 38.2082 69.5498 38.2724 69.6328 38.3541C69.7151 38.4286 69.7809 38.5197 69.8257 38.6214C69.8705 38.723 69.8933 38.833 69.8928 38.9441C69.8911 39.1183 69.8384 39.2881 69.7411 39.4326C69.6438 39.5771 69.5063 39.6899 69.3455 39.757C69.1847 39.8241 69.0078 39.8425 68.8367 39.81C68.6655 39.7775 68.5077 39.6954 68.3828 39.5741L68.3328 39.5641ZM68.3328 41.7741H69.5428V50.7141H68.3528L68.3328 41.7741Z" fill="white"/>
<path d="M74.2527 50.2239C73.5716 49.843 73.0078 49.2827 72.6227 48.6038C72.2332 47.8836 72.0293 47.0777 72.0293 46.2589C72.0293 45.44 72.2332 44.6341 72.6227 43.9138C73.0053 43.2331 73.5697 42.6722 74.2527 42.2938C74.9711 41.9155 75.7708 41.7178 76.5827 41.7178C77.3946 41.7178 78.1944 41.9155 78.9127 42.2938C79.5937 42.6716 80.155 43.2329 80.5327 43.9138C80.9162 44.636 81.1167 45.4412 81.1167 46.2589C81.1167 47.0765 80.9162 47.8817 80.5327 48.6038C80.1524 49.2829 79.5918 49.8436 78.9127 50.2239C78.1965 50.609 77.3959 50.8105 76.5827 50.8105C75.7695 50.8105 74.969 50.609 74.2527 50.2239ZM78.2527 49.3038C78.7567 49.0166 79.1666 48.5893 79.4327 48.0738C79.713 47.5081 79.8588 46.8852 79.8588 46.2538C79.8588 45.6225 79.713 44.9996 79.4327 44.4338C79.1666 43.9184 78.7567 43.4911 78.2527 43.2038C77.7279 42.9185 77.1401 42.7691 76.5427 42.7691C75.9454 42.7691 75.3575 42.9185 74.8327 43.2038C74.3278 43.4932 73.9152 43.9197 73.6427 44.4338C73.3548 44.9973 73.2047 45.6211 73.2047 46.2538C73.2047 46.8866 73.3548 47.5104 73.6427 48.0738C73.9152 48.588 74.3278 49.0145 74.8327 49.3038C75.3575 49.5892 75.9454 49.7386 76.5427 49.7386C77.1401 49.7386 77.7279 49.5892 78.2527 49.3038Z" fill="white"/>
<path d="M90.823 42.6841C91.1747 43.0662 91.4447 43.516 91.6166 44.006C91.7886 44.4961 91.8588 45.016 91.823 45.5341V50.7241H90.613V45.6541C90.6637 44.8803 90.4129 44.1169 89.913 43.5241C89.6493 43.2692 89.335 43.0725 88.9905 42.9468C88.646 42.821 88.2789 42.769 87.913 42.7941C87.4926 42.7716 87.0721 42.8364 86.678 42.9844C86.2839 43.1324 85.9247 43.3604 85.623 43.6541C85.3368 43.9719 85.1162 44.3431 84.9738 44.7463C84.8314 45.1496 84.7699 45.577 84.793 46.0041V50.6941H83.583V41.7741H84.743V43.4241C85.0704 42.8797 85.5455 42.4394 86.113 42.1541C86.7347 41.848 87.4201 41.6937 88.113 41.7041C88.6076 41.6749 89.1029 41.7468 89.5688 41.9153C90.0347 42.0838 90.4614 42.3453 90.823 42.6841Z" fill="white"/>
<path d="M95.4125 50.4938C94.8456 50.3358 94.3155 50.0673 93.8525 49.7038L94.3925 48.7038C94.8171 49.024 95.2942 49.2677 95.8025 49.4238C96.3736 49.6117 96.9713 49.7063 97.5725 49.7038C98.1995 49.7479 98.8263 49.6163 99.3825 49.3238C99.5678 49.2122 99.72 49.0534 99.8237 48.8637C99.9274 48.6739 99.9787 48.46 99.9725 48.2438C99.9777 48.1 99.9519 47.9568 99.8966 47.8239C99.8414 47.691 99.7581 47.5716 99.6525 47.4738C99.4135 47.2729 99.1337 47.1262 98.8325 47.0438C98.4016 46.9255 97.9642 46.832 97.5225 46.7638C96.9313 46.659 96.3469 46.5187 95.7725 46.3438C95.3388 46.208 94.9489 45.9595 94.6425 45.6238C94.3106 45.2316 94.1423 44.7267 94.1725 44.2138C94.1675 43.8538 94.2504 43.4979 94.4143 43.1772C94.5781 42.8565 94.8178 42.5807 95.1125 42.3738C95.8777 41.858 96.7914 41.6084 97.7125 41.6638C98.2967 41.6652 98.8783 41.7425 99.4425 41.8938C99.9487 42.0145 100.432 42.2172 100.873 42.4938L100.343 43.4938C99.5639 42.9692 98.6412 42.7001 97.7025 42.7238C97.0947 42.6843 96.4888 42.827 95.9625 43.1338C95.7809 43.2468 95.6312 43.4045 95.5279 43.5918C95.4246 43.7792 95.3711 43.9899 95.3725 44.2038C95.3646 44.3563 95.3901 44.5086 95.4471 44.6502C95.504 44.7919 95.5912 44.9194 95.7025 45.0238C95.9365 45.2365 96.2175 45.3907 96.5225 45.4738C96.9703 45.5974 97.4243 45.6976 97.8825 45.7738C98.4632 45.8777 99.0375 46.0146 99.6025 46.1838C100.028 46.315 100.411 46.5566 100.713 46.8838C101.036 47.2606 101.201 47.7481 101.173 48.2438C101.179 48.6135 101.09 48.9787 100.915 49.3044C100.74 49.63 100.484 49.9053 100.173 50.1038C99.3614 50.6064 98.4153 50.8473 97.4625 50.7938C96.768 50.7982 96.0767 50.697 95.4125 50.4938Z" fill="white"/>
<path d="M77.3726 13.794H71.7326C71.5178 13.794 71.3117 13.8794 71.1598 14.0313C71.0079 14.1832 70.9226 14.3892 70.9226 14.604V28.864L61.5726 21.634C61.4498 21.4774 61.3882 21.2814 61.3993 21.0827C61.4103 20.884 61.4932 20.6961 61.6326 20.554L70.1926 11.834C70.304 11.7189 70.3792 11.5736 70.4089 11.4162C70.4386 11.2588 70.4216 11.0961 70.3599 10.9482C70.2982 10.8004 70.1945 10.6738 70.0617 10.5842C69.9289 10.4946 69.7728 10.4459 69.6126 10.444H63.2226C63.0148 10.4438 62.8146 10.5224 62.6626 10.664L53.6626 19.194C53.5464 19.3027 53.4011 19.3752 53.2444 19.4027C53.0877 19.4302 52.9264 19.4116 52.7802 19.3491C52.6339 19.2865 52.509 19.1828 52.4206 19.0505C52.3323 18.9182 52.2843 18.7631 52.2826 18.604V1.76403C52.2853 1.60438 52.2413 1.44741 52.156 1.3124C52.0707 1.17739 51.9479 1.07022 51.8026 1.00403C51.7388 0.975488 51.6716 0.955321 51.6026 0.944033C49.4726 0.384033 41.6026 0.104033 38.6026 0.0240335C36.2626 0.00403347 35.1826 0.00403347 33.4126 0.00403347C31.2543 -0.0497375 29.1167 0.434845 27.1926 1.41403C25.496 2.29891 24.103 3.67106 23.1926 5.35403C22.2547 7.13751 21.7833 9.12935 21.8226 11.144C21.698 13.2464 22.2103 15.3374 23.2926 17.144C24.1405 18.4391 25.3458 19.4604 26.7626 20.084C28.4069 20.7298 30.1075 21.2219 31.8426 21.554C33.1772 21.7346 34.4799 22.1015 35.7126 22.644C36.1096 22.8294 36.4418 23.1295 36.6664 23.5056C36.8911 23.8818 36.9977 24.3166 36.9726 24.754C36.9726 26.8474 35.4359 27.894 32.3626 27.894C30.7605 27.8945 29.1727 27.5926 27.6826 27.004C26.2217 26.3506 24.8368 25.539 23.5526 24.584C23.5526 24.584 23.5526 24.494 23.5526 24.454C23.5727 22.4504 23.0361 20.4806 22.0026 18.764C20.9986 17.0934 19.5519 15.7332 17.8226 14.834C15.95 13.8708 13.868 13.3864 11.7626 13.424C9.65088 13.3876 7.56271 13.8719 5.68258 14.834C3.94468 15.7284 2.49031 17.0893 1.48258 18.764C0.471242 20.4905 -0.0411046 22.4637 0.00257721 24.464C-0.032032 26.4673 0.490752 28.4407 1.51258 30.164C2.51989 31.8391 3.97437 33.2001 5.71258 34.094C7.59557 35.0582 9.68746 35.5425 11.8026 35.504C13.9081 35.5421 15.9902 35.0576 17.8626 34.094C19.0532 33.4809 20.1183 32.6498 21.0026 31.644C22.5559 32.7694 24.2336 33.7123 26.0026 34.454C27.9601 35.1543 30.0235 35.5129 32.1026 35.514C34.3025 35.5696 36.4836 35.0963 38.4626 34.134C40.1772 33.2822 41.5955 31.9336 42.5326 30.264C43.4861 28.5178 43.9686 26.5534 43.9326 24.564C44.052 22.5009 43.5504 20.4494 42.4926 18.674C41.6489 17.3746 40.4325 16.3603 39.0026 15.764C37.3778 15.1337 35.706 14.6321 34.0026 14.264C32.623 14.008 31.2798 13.5849 30.0026 13.004C29.5935 12.7985 29.255 12.4755 29.0305 12.0764C28.806 11.6774 28.7058 11.2204 28.7426 10.764C28.736 10.3155 28.8381 9.87208 29.0401 9.47157C29.2421 9.07106 29.538 8.72538 29.9026 8.46403C30.9374 7.79311 32.1624 7.4772 33.3926 7.56403C35.2726 7.56403 40.9226 7.56403 44.9926 7.88403V34.684C44.9926 34.9015 45.079 35.1101 45.2327 35.2639C45.3865 35.4176 45.5951 35.504 45.8126 35.504H51.4426C51.6601 35.504 51.8686 35.4176 52.0224 35.2639C52.1762 35.1101 52.2626 34.9015 52.2626 34.684V29.574C52.2622 29.4309 52.2903 29.2891 52.3453 29.1569C52.4002 29.0247 52.4809 28.9048 52.5826 28.804L55.4426 26.514C55.8926 26.064 56.1026 26.104 56.5026 26.604L69.7826 35.204C69.8601 35.2986 69.9579 35.3746 70.0686 35.4265C70.1793 35.4784 70.3003 35.5049 70.4226 35.504H77.3626C77.5774 35.504 77.7834 35.4187 77.9353 35.2668C78.0872 35.1149 78.1726 34.9089 78.1726 34.694V14.604C78.1726 14.3909 78.0886 14.1864 77.9389 14.0348C77.7891 13.8832 77.5857 13.7967 77.3726 13.794ZM15.7226 28.794C15.2196 29.3236 14.6103 29.7408 13.9348 30.0182C13.2592 30.2957 12.5326 30.4272 11.8026 30.404C11.0681 30.4277 10.3368 30.2965 9.65634 30.0191C8.97583 29.7418 8.36127 29.3244 7.85258 28.794C7.32215 28.2097 6.91221 27.5265 6.64623 26.7834C6.38026 26.0404 6.26348 25.2522 6.30258 24.464C6.2263 22.8755 6.7838 21.3217 7.85258 20.144C8.36127 19.6137 8.97583 19.1963 9.65634 18.9189C10.3368 18.6415 11.0681 18.5104 11.8026 18.534C12.5342 18.5095 13.2628 18.6402 13.9402 18.9178C14.6176 19.1953 15.2285 19.6132 15.7326 20.144C16.7941 21.3249 17.3443 22.8783 17.2626 24.464C17.303 25.2516 17.1878 26.0393 16.9236 26.7823C16.6593 27.5253 16.2512 28.2089 15.7226 28.794Z" fill="url(#paint0_linear)"/>
<defs>
<linearGradient id="paint0_linear" x1="77.4626" y1="12.624" x2="-7.66742" y2="31.774" gradientUnits="userSpaceOnUse">
<stop stop-color="#70E3E1"/>
<stop offset="1" stop-color="#0049B8"/>
</linearGradient>
</defs>
</svg>
